<svg xmlns="http://www.w3.org/2000/svg" width="246.612" height="118.223" viewBox="0 0 246.612 118.223"><path d="M60.948 78.945c0-2.825 0-3.365-.036-3.98-.036-.56-.128-1.076-.822-1.155-.146-.02-.33-.02-.676-.058-.274-.02-.347-.114-.347-.21 0-.115.11-.173.42-.173.456 0 2.136.057 2.938.057.603 0 1.423-.02 2.958-.038 3.12.02 5.57.442 7.23 2.23.93.98 1.75 2.593 1.75 4.883 0 2.328-.967 4.23-2.007 5.268-.894.962-2.574 2.288-6.244 2.288-.73 0-1.35-.02-1.953-.075-.713-.078-1.46-.137-1.807-.137-.44 0-.876 0-1.39.02-.51.02-.747.038-1.258.038-.31 0-.365-.095-.365-.192 0-.135.146-.192.347-.192.237-.02.365-.038.567-.078.365-.058.547-.423.602-1.173.056-.922.092-2.288.092-3.942v-3.383zm3.23 2.154c0 2.037.02 3.364.037 3.73.036.787.11 1.172.31 1.384.33.424 1.078.692 1.88.692 1.278 0 2.356-.288 3.323-1.346.95-1 1.187-2.71 1.187-4.518 0-1.75-.603-3.308-1.37-4.406-1.258-1.73-2.992-2.095-4.198-2.095-.403 0-.822.058-.986.153-.144.078-.163.172-.163.346.018.653-.018 2.038-.018 3.594v2.463zM78.747 78.945c0-3.134-.018-3.518-.056-4.134-.035-.557-.2-.883-.656-1-.164-.037-.42-.037-.603-.057-.236-.02-.328-.094-.328-.21 0-.115.11-.173.4-.173 1.04 0 1.918.058 2.72.058.384 0 4.856-.02 5.15-.02.364 0 .803-.038.985-.078.128-.038.22-.077.292-.077.09 0 .11.077.11.174 0 .094-.037.288-.092.846-.056.384-.09 1.057-.146 2.058 0 .153-.072.27-.182.27-.092 0-.164-.096-.182-.27 0-.21-.018-.403-.09-.673-.092-.443-.33-.692-1.206-.77-.603-.057-2.19-.095-2.738-.095-.11 0-.146.057-.146.194v4.23c0 .134.018.23.146.23.51.02 1.99 0 2.646-.02.894-.037 1.13-.096 1.333-.442.11-.172.164-.25.255-.25.11 0 .11.114.11.23 0 .192-.092.884-.146 1.635-.018.442-.018 1.383-.018 1.594 0 .25-.056.366-.164.366-.128 0-.164-.135-.2-.31-.02-.15-.037-.287-.055-.442-.074-.557-.33-.884-1.223-.94-.51-.04-2.008-.078-2.574-.078-.09 0-.11.094-.11.25v1.328c0 .654-.018 1.788 0 2.52.018 1.345.274 1.652 2.3 1.652.475 0 1.187-.02 1.698-.23.51-.212.73-.635.894-1.52.036-.23.11-.345.22-.345.145 0 .163.192.163.423 0 .75-.2 2.213-.292 2.577-.127.5-.255.52-.93.52-2.52 0-3.888-.117-5.804-.117-.858 0-1.625.058-2.63.058-.33 0-.437-.058-.437-.192 0-.097.09-.192.364-.192.22-.02.403-.038.547-.078.512-.077.585-.806.622-2.02.036-.768.056-1.903.056-3.095v-3.385zM90.63 75.31c-.51-1.19-.712-1.363-1.333-1.498-.146-.038-.31-.058-.42-.058-.2-.037-.29-.114-.29-.21 0-.135.145-.173.382-.173.985 0 2.044.06 2.774.06.64 0 1.625-.06 3.05-.06.273 0 .418.078.418.193s-.11.192-.273.192c-.22.02-.33.02-.494.058-.475.078-.547.29-.547.48 0 .252.11.635.418 1.46.858 2.348 2.008 5.213 2.83 7.462.75-1.77 2.646-6.48 3.25-8.287.09-.21.145-.46.145-.634 0-.25-.11-.386-.437-.443-.22-.057-.53-.077-.73-.096-.237-.02-.33-.077-.33-.192s.092-.192.402-.192c1.205 0 2.1.058 2.373.058s1.46-.058 2.028-.058c.273 0 .4.058.4.192 0 .135-.09.192-.328.192-.22.02-.51.02-.804.174-.383.192-.64.597-1.15 1.73-.73 1.653-1.387 3.212-2.43 5.654-1.168 2.73-1.952 4.48-2.427 5.48-.53 1.136-.713 1.386-.95 1.386-.256 0-.402-.27-.75-1.155L90.63 75.31zM106.822 78.945c0-3.134-.018-3.518-.056-4.134-.036-.557-.2-.883-.657-1-.165-.037-.422-.037-.604-.057-.237-.02-.33-.094-.33-.21 0-.115.11-.173.402-.173 1.04 0 1.917.058 2.72.058.383 0 4.855-.02 5.148-.02.365 0 .804-.038.986-.078.128-.038.22-.077.292-.077.09 0 .11.077.11.174 0 .094-.036.288-.09.846-.057.384-.092 1.057-.147 2.058 0 .153-.072.27-.182.27-.092 0-.164-.096-.182-.27 0-.21-.018-.403-.09-.673-.092-.443-.33-.692-1.206-.77-.603-.057-2.19-.095-2.738-.095-.11 0-.147.057-.147.194v4.23c0 .134.018.23.146.23.51.02 1.99 0 2.645-.02.894-.037 1.13-.096 1.333-.442.11-.172.164-.25.255-.25.11 0 .11.114.11.23 0 .192-.092.884-.146 1.635-.018.442-.018 1.383-.018 1.594 0 .25-.057.366-.165.366-.128 0-.164-.135-.2-.31-.02-.15-.037-.287-.055-.442-.074-.557-.33-.884-1.223-.94-.51-.04-2.008-.078-2.574-.078-.09 0-.11.094-.11.25v1.328c0 .654-.018 1.788 0 2.52.018 1.345.274 1.652 2.3 1.652.475 0 1.187-.02 1.698-.23.512-.212.73-.635.895-1.52.036-.23.11-.345.22-.345.145 0 .163.192.163.423 0 .75-.2 2.213-.292 2.577-.128.5-.255.52-.93.52-2.52 0-3.89-.117-5.805-.117-.857 0-1.624.058-2.63.058-.328 0-.436-.058-.436-.192 0-.097.09-.192.365-.192.218-.02.402-.038.546-.078.51-.077.584-.806.62-2.02.037-.768.057-1.903.057-3.095v-3.385zM122.85 82.35c0 1.94-.056 3.325.256 3.728.256.366.603.46 2.118.46 1.004 0 1.588-.02 2.1-.307.436-.21.747-.71.95-1.614.053-.21.09-.367.236-.367.127 0 .145.096.145.366 0 .443-.2 2.268-.383 2.825-.146.502-.293.52-1.022.52-2.52 0-4.217-.116-6.152-.116-.858 0-1.844.058-2.848.058-.255 0-.4-.038-.4-.21 0-.116.11-.173.364-.173.22-.02.42-.04.62-.08.657-.114.676-.46.73-1.998.036-.77.056-1.924.056-3.116V78.94c0-3.133-.018-3.48-.056-4.096-.036-.537-.164-.864-.62-.998-.165-.058-.438-.078-.713-.097-.2 0-.382-.038-.382-.193 0-.152.182-.192.547-.192 1.04 0 1.99.058 2.702.058.164 0 2.428-.058 3.085-.058.33 0 .437.058.437.172 0 .174-.183.21-.438.21-.182.02-.365.02-.62.08-.494.094-.622.46-.658 1.134-.036.616-.054 1-.054 4.173v3.214zM130.718 80.695c0-3.845 2.446-7.595 7.814-7.595 4.637 0 7.54 3.27 7.54 7.172 0 4.48-2.886 7.904-7.67 7.904-5.385 0-7.684-4.078-7.684-7.48zm11.7.423c0-3.19-1.258-6.825-4.49-6.825-1.68 0-3.56.98-3.56 5.538 0 3.636 1.444 7.115 4.583 7.115 1.133 0 3.47-.52 3.47-5.827zM150.45 78.945c0-2.114 0-3.518-.056-4.134-.036-.537-.2-.883-.638-.98-.237-.057-.475-.057-.695-.077-.236 0-.328-.077-.328-.192s.056-.19.403-.19c.784 0 2.646.057 2.958.057.876 0 1.898-.058 2.738-.058 2.484 0 3.69.614 4.42 1.326.4.403.984 1.25.984 2.557 0 2.96-2.574 4.557-5.094 4.557-.127 0-.437-.02-.565-.057-.11-.037-.2-.077-.2-.194 0-.115.07-.193.402-.193 1.515 0 2.245-1.25 2.245-2.98 0-1.327-.237-2.385-.894-3.134-.475-.538-1.096-.79-1.734-.79-.237 0-.383.02-.493.04-.145.037-.218.15-.218.48v7.345c0 1.5 0 3.25.09 4.058.037.557.165.923.713 1.038.256.058.584.078.804.097.273 0 .346.058.346.212 0 .094-.09.172-.365.172-1.258 0-3.193-.058-3.358-.058-.09 0-2.08.058-2.702.058-.256 0-.365-.058-.365-.192 0-.135.146-.192.347-.192.182-.02.365-.038.55-.078.364-.077.528-.346.602-1.076.072-.807.11-2.173.11-4.038v-3.382h-.004zM164.286 78.945c0-3.134-.018-3.518-.054-4.134-.036-.557-.202-.883-.657-1-.164-.037-.42-.037-.603-.057-.237-.02-.33-.094-.33-.21 0-.115.11-.173.404-.173 1.04 0 1.917.058 2.72.058.383 0 4.855-.02 5.147-.02.366 0 .804-.038.986-.078.127-.038.218-.077.29-.077.092 0 .11.077.11.174 0 .094-.035.288-.09.846-.055.384-.09 1.057-.145 2.058 0 .153-.074.27-.182.27-.092 0-.164-.096-.182-.27 0-.21-.02-.403-.09-.673-.09-.443-.328-.692-1.206-.77-.602-.057-2.19-.095-2.737-.095-.11 0-.146.057-.146.194v4.23c0 .134.02.23.147.23.51.02 1.99 0 2.646-.02.894-.037 1.13-.096 1.333-.442.11-.172.163-.25.255-.25.11 0 .11.114.11.23 0 .192-.09.884-.145 1.635-.018.442-.018 1.383-.018 1.594 0 .25-.056.366-.164.366-.128 0-.163-.135-.202-.31l-.053-.442c-.074-.557-.33-.884-1.223-.94-.51-.04-2.008-.078-2.575-.078-.09 0-.11.094-.11.25v1.328c0 .654-.02 1.788 0 2.52.02 1.345.274 1.652 2.3 1.652.475 0 1.188-.02 1.7-.23.51-.212.727-.635.893-1.52.036-.23.11-.345.22-.345.145 0 .163.192.163.423 0 .75-.2 2.213-.293 2.577-.128.5-.256.52-.93.52-2.52 0-3.89-.117-5.805-.117-.86 0-1.625.058-2.63.058-.328 0-.438-.058-.438-.192 0-.097.092-.192.366-.192.22-.02.4-.038.55-.078.51-.077.583-.806.62-2.02.035-.768.053-1.903.053-3.095l-.004-3.385zM177.084 78.945c0-2.982-.036-3.365-.054-3.98-.038-.79-.256-1.038-.694-1.135-.274-.058-.566-.058-.73-.078-.218-.02-.328-.094-.328-.21 0-.115.128-.173.4-.173.787 0 2.54.057 2.795.057.347 0 2.1-.058 2.94-.058 1.714 0 2.92.17 3.723.653.876.5 1.66 1.48 1.66 2.942 0 1.616-.876 2.845-2.446 3.864 1.113 1.69 2.446 3.75 3.56 5.095.967 1.135 1.405 1.46 1.917 1.538.202.038.31.038.457.058.202 0 .31.076.31.193 0 .172-.18.192-.364.192h-1.644c-1.882 0-2.685-.192-3.323-.634-.584-.365-1.17-1.192-1.882-2.403-.84-1.46-1.258-2.25-1.588-2.768-.035-.06-.128-.116-.217-.116h-1.205c-.092 0-.146.037-.146.154v.98c0 1.518 0 2.422.092 3.23.035.502.163.924.712 1.058.256.078.455.078.822.117.293.02.327.094.327.21 0 .115-.128.173-.383.173-1.222 0-3.213-.058-3.34-.058-.217 0-1.99.058-2.61.058-.273 0-.366-.058-.366-.192 0-.135.128-.192.33-.192.18-.02.42-.038.62-.078.365-.095.51-.443.564-1.096.074-.807.092-2.154.092-4.018v-3.383zm3.14 1.288c0 .154.054.23.164.29.347.19.896.25 1.405.25.493 0 .86-.078 1.15-.31.383-.307.713-1.134.713-2.42 0-2.732-1.644-3.443-2.592-3.443-.293 0-.603.02-.73.077-.074.038-.11.058-.11.21v5.346z"/><path d="M88.57 1.773c-10.932.595-31.176 2.215-39.982 4.644-.693.19.668 1.07-.004 1.068l-4.173-.01c-4.355-.354-12.84 8.633-13.2 8.674-2.98.337-4.275 4.366-4.553 6.477-.39 2.953 2.142 31.175 2.185 38.44-2.733 1.798-1.038-.07-5.517 1.55-4.48 1.62-6.095 2.16-9.424 3.484C9.827 67.723 2.824 72.157.91 71.51c-.954.267-.94.95-.893 2.968l.004.224c.034 1.488 6.724 5.972 19.478 18.118-1.837 6.438-.975 5.253-2.633 9.526-1.626 4.187-1.03 10.494-1.03 11.555 0 1.765-.998 2.166-.893 2.83.178 1.145.697.718 1.203.718h.013l.566.683c2.89.026 2.016 1.078 9.455-4.655 4.99-3.846 22.14-11.204 22.42-11.394 1.062-.72 1.243-2.508 1.203-4.04-.147-5.664-6.8-19.89-7.862-21.87l-1.352-3.558c33.872-13.53 55.674-12.964 67.82-13.37 0 0 46.562-.4 60.935 3.243l1.62.61c16.934 1.227 20.794 4.097 34.212 7.055l-1.562 4.367c-1.063 1.98-2.732 18.268-2.88 23.932-.04 1.532.81 3.038 1.874 3.758.28.19 8.77 2.938 12.874 4.497 8.78 3.335 14.276 10.67 17.166 10.645l.566.1h.013c.506 0 1.025-.354 1.203-1.498.104-.665-.893-2.188-.893-3.954 0-1.06-2.432-13.676-4.27-20.114.608-3.676 17.31-19.26 17.342-20.747l.005-.192c.046-2.02-9.81-6.736-13.884-8.356-3.328-1.325-4.945-1.858-9.424-3.48-4.48-1.62-2.844.728-5.577-1.072.044-7.263 1.56-34.172 1.172-37.125-.28-2.11-1.573-6.14-4.555-6.477-.36-.04-2.428-3.24-6.784-2.886l-19.39-6.4c-.672 0-2.93-.85-3.644-.96-9.157-1.394-24.26-2.977-36.642-3.926-12.382-.948-48.382.913-59.314 1.51zM36.807 105.268c-.08.014-7.678 4.522-7.763 4.536-5.23.917-7.427 4.644-10.222 4.644h-.174c-.043 0 .34-1.58.34-3.225 0-.652-.836-5.296.207-7.988 1.658-4.28-.31-.057 1.518-6.575l2.126-5.11-2.127-.58c-1.44-2.568-5.76-1.995-7.288-6.628l.38-3.894h-3.18c-1.227-4-6.796-5.74-6.836-6.387l-.006-.084c-.01-.433 1.243.013 1.243-.253.29-.024 7.4-4.91 9.983-5.784 3.827-1.297 6.917-2.63 9.83-3.64 2.913-1.012 4.218-2.346 4.227-1.758 0 0-.8 3.05-.802 3.528l1.862 10.65c.607 1.44 1.215.912 3.037 2.43 1.822 1.518 7.288 11.237 7.288 11.237l7.74 9.784-11.385 5.098zm11.03-11.737c.434 1.66.808 2.4.73 3.132-.252.72-12.67-17.205-16.486-21.2 1.476-.127 4.404-1.92 6.074-1.92 1.706 2.97 8.582 15.78 9.683 19.99zm47.21-35.49c-.176-1.64-.944-3.894-.944-3.894s-.493 4.794-1.116 4.793c-.706-.002-2.81-.452-2.084-.41 1.387.08.41-3.392.41-3.392s-.933 3.255-1.254 3.306c-25.783 4.05-46.27 11.296-53.253 13.118 0 0-3.357 2.06-5.162 1.822L30.43 65.49c.027-.112.28-3.202.304-3.34l-.91-16.4c-.004-.085-1.52-21.863-1.52-21.863.002-.094.91-5.072.912-5.162l4.493-1.376c2.723-.17 5.465-8.2 8.805-8.2 4.86 0 3.34.304 5.466-.304.607-.173 3.54-.398 4.79.602-.25-1.5-.756-1.134-.234-1.412 3.037-1.62 15.302-4.055 23.078-4.05.027.02 2.36 4.48 2.405 4.462.65 0-.847-5.07-.18-5.068.598.507 3.45.81 4.25.81.438 0 1.42 2.953 1.418 2.43-.017-4.8 1.782-2.134 1.903-2.18.417-.162 1.797-1.465 2.147-1.465 0 0 44.132-.89 49.193-1.294 5.06-.404 8.324 2.068 8.74 2.23.12.046-3.554-3.46-3.376-3.46h1.316c.8 0 4.868 1 5.466 0 .667 0 1.375 1 2.024 1 .044 0 1.998.313 2.024.293 7.777-.007 9.2 1.916 13.563 1.908.592 0 6.658.55 7.288.535 12.17-.285 26.115 9.018 30.973 9.018 3.34 0 6.68-.373 8.054 2.982l3.485 1.722c0 .09.157 3.62.16 3.714l-.362 23.83-.202 15.996c.025.14-.027 1.51 0 1.62 0 0 .55 4.722-1.912 5.046-1.804.238-3.854-.573-3.854-.573-6.592.01-37.018-6.504-38.435-6.264-.32.055-7.824-1.414-11.266-1.82s-63.792-2.41-65.386-1.417zm107.88 40.652c-.076-.733-.382-1.82.052-3.48 1.1-4.208 2.74-21.663 4.447-24.633 1.67 0 6.268.712 7.743.84-.304 7.377-11.99 27.992-12.242 27.272zm41.87-27.26c-.04.645-15.724 13.836-17.164 16.403L225.81 90l2.633 7.004c1.828 6.518 3.897 12.79 3.897 13.443 0 1.646.382 4.003.34 4.003h-.175c-2.795 0-7.12-7.55-12.35-8.467-.084-.015-.143-.642-.223-.655l-14.96-5.318s6.984-12.92 7.086-13.248l2.706-9.442s1.397-2.68 2.005-4.12l1.564-.884c-.003-.48-.304-10.63-.304-10.63.01-.588.017-1.16.023-1.727 2.746.032 2.78-.12 5.692.89 2.913 1.012 6.002 2.395 9.83 3.69 2.582.875 9.694 5.86 9.983 5.885 0 .266 1.253.055 1.243.487l-.004.52z"/><path d="M103.992 99.903c0-2.408 0-2.868-.03-3.392-.032-.476-.11-.917-.7-.983-.126-.017-.28-.017-.576-.05-.234-.017-.297-.097-.297-.18 0-.097.093-.147.358-.147.388 0 1.82.05 2.505.05.514 0 1.213-.017 2.52-.033 2.663.017 4.748.377 6.164 1.9.793.836 1.494 2.212 1.494 4.164 0 1.985-.824 3.607-1.71 4.492-.763.82-2.195 1.95-5.322 1.95-.622 0-1.152-.017-1.665-.065-.607-.067-1.244-.117-1.54-.117-.374 0-.748 0-1.184.017-.437.017-.64.033-1.074.033-.265 0-.31-.08-.31-.164 0-.115.122-.164.293-.164.202-.017.31-.033.482-.067.31-.05.468-.36.514-1 .046-.785.077-1.95.077-3.36v-2.883zm2.754 1.836c0 1.736.017 2.867.032 3.18.03.67.093.998.265 1.18.28.36.918.59 1.603.59 1.09 0 2.008-.246 2.832-1.148.81-.852 1.013-2.31 1.013-3.85 0-1.493-.513-2.82-1.166-3.756-1.073-1.475-2.55-1.785-3.578-1.785-.343 0-.7.05-.842.13-.123.068-.14.148-.14.296.018.557-.016 1.738-.016 3.065v2.1h-.002zM120.126 104.148c-.076 0-.11.032-.14.114l-.48 1.344c-.157.427-.25.853-.25 1.05 0 .31.14.458.468.49.172.033.42.05.545.067.23 0 .278.08.278.164 0 .13-.123.164-.326.164-.7 0-1.23-.05-2.053-.05-.173 0-1.2.05-1.978.05-.218 0-.312-.066-.312-.163 0-.13.11-.164.297-.164.185-.017.34-.033.497-.067.544-.114.856-.624 1.183-1.41l4.154-9.9c.298-.704.47-.95.64-.95.156 0 .296.23.56.82.405.918 3.02 7.195 4.077 9.686.53 1.28.87 1.673 1.416 1.754.172.05.36.05.5.067.2 0 .293.064.293.164 0 .114-.11.164-.404.164-1.526 0-3.3-.032-4.295-.05-.25 0-.342-.048-.342-.146s.077-.164.218-.197c.172-.033.233-.147.186-.295l-1.043-2.606c-.017-.066-.078-.097-.125-.097h-3.567v-.002zm3.113-1.31c.093 0 .093-.05.076-.083l-1.37-3.508c-.046-.115-.076-.08-.108 0l-1.323 3.508c-.017.05.017.083.063.083h2.66zM132.263 103.295c0-.885-.172-1.213-.436-1.753-.575-1.115-2.116-3.818-2.646-4.655-.59-.95-.76-1.164-1.26-1.328-.093-.034-.28-.068-.405-.084-.156-.017-.233-.08-.233-.18 0-.114.123-.147.312-.147.638 0 1.805.05 2.396.05.266 0 1.245-.05 2.226-.05.172 0 .296.032.296.13 0 .13-.077.164-.312.213-.42.05-.482.214-.482.343 0 .117.046.263.156.477.25.475 2.195 4.113 2.445 4.606.948-1.887 1.79-3.526 2.084-4.18.156-.344.25-.624.25-.836 0-.18-.095-.328-.56-.41-.14-.033-.266-.08-.266-.197 0-.097.093-.147.342-.147.64 0 1.167.05 1.758.05.218 0 1.494-.05 1.79-.05.185 0 .31.033.31.147 0 .13-.108.18-.31.18-.203.017-.42.067-.608.13-.436.18-.59.46-.87.836-.53.688-2.755 4.704-2.974 5.393-.232.687-.248 1.328-.248 1.557v1.164c0 .26 0 .935.046 1.622.03.41.063.82.638.934.28.067.59.067.856.1.188.016.25.064.25.18 0 .08-.077.147-.31.147-1.122 0-2.413-.05-2.926-.05-.452 0-1.712.05-2.41.05-.22 0-.313-.066-.313-.18 0-.082.093-.146.278-.146.25-.033.406-.033.545-.083.405-.113.5-.41.528-.884.048-.688.064-1.427.064-1.688v-1.264zM141.258 107.31c-.265-.113-.34-.327-.34-.653 0-1.33.045-1.95.092-2.41.03-.294.093-.393.186-.393.11 0 .123.148.14.28.015.163.03.31.077.506.265 1.344 1.432 2.114 2.645 2.114 1.48 0 1.93-.803 1.93-1.507 0-.687-.123-1.26-1.448-2.213l-.964-.705c-1.898-1.41-2.428-2.556-2.428-4 0-1.885 1.48-3.41 3.97-3.41.667 0 1.135.034 1.788.165.25.05.515.117.763.197.155.05.202.1.202.23-.03.523-.063.85-.063 2.31 0 .295-.047.41-.172.41-.078 0-.14-.05-.172-.312-.017-.165-.063-.574-.28-.95-.294-.526-1.012-1.083-2.13-1.083-1.277 0-1.745.754-1.745 1.507 0 .557.19 1.197 1.246 1.95l.793.557c2.18 1.525 2.863 2.543 2.863 4.197 0 1.13-.482 2.245-1.65 2.966-.903.574-1.9.705-2.707.705-1.165.003-1.992-.16-2.598-.457zM86.43 101.767l4.175-4.174 4.174 4.174-4.175 4.174zM154.88 101.767l4.174-4.174 4.174 4.174-4.174 4.174zM105.742 19.994c1.98.56 3.416 1.43 4.306 2.596-1.68 1.054-3.36 2.118-5.04 3.193-.046-.737-.68-1.372-1.903-1.897-1.08.686-2.158 1.377-3.237 2.07v11.227c0 .56.123 1.085.368 1.577.2.387.478.734.834 1.04.4.378.8.65 1.2.812-1.656 1.066-3.313 2.14-4.97 3.227-.01-.01-.023-.018-.034-.026-.01 0-.022 0-.033.002l-.066-.023c-.056-.024-.11-.048-.167-.07l-.233-.096c-.2-.096-.39-.194-.567-.29-.223-.132-.445-.272-.667-.42-.512-.367-.912-.783-1.2-1.253-.378-.57-.567-1.198-.567-1.884V27.148c0-1.028-.4-1.886-1.2-2.572-.4-.35-.8-.604-1.2-.755 1.643-1.107 3.288-2.204 4.934-3.293.01 0 .022 0 .033-.002l.1.048c.044.015.09.03.133.046l.2.068c.155.08.322.162.5.242.2.115.39.23.567.347.467.3.855.64 1.167 1.02.4.465.655.976.768 1.528 1.99-1.292 3.982-2.57 5.974-3.83zM130.617 36.715c0 .56.122 1.084.367 1.577.2.402.478.768.834 1.1.4.39.8.68 1.202.87-1.647.947-3.294 1.903-4.94 2.87-.012 0-.024 0-.035-.002-.033-.02-.067-.037-.1-.055-.044-.02-.09-.037-.133-.056-.067-.03-.133-.057-.2-.085l-.468-.277c-.2-.13-.4-.257-.6-.386-.47-.33-.858-.695-1.17-1.094-.38-.508-.635-1.042-.768-1.602-1.993 1.184-3.985 2.382-5.978 3.594-1.936-.6-3.362-1.47-4.274-2.63-.713-.924-1.068-1.99-1.068-3.2V25.765c0-.432-.123-.845-.367-1.237-.202-.338-.48-.65-.836-.93-.4-.333-.8-.595-1.202-.783 1.647-1.032 3.294-2.055 4.942-3.068.713.315 1.335.778 1.87 1.387.422.483.78 1.05 1.068 1.696.333.737.545 1.41.634 2.024V37.35c0 .76.635 1.43 1.904 2.025 1.08-.64 2.16-1.277 3.24-1.91v-11.28c0-.558-.135-1.082-.402-1.57-.2-.398-.467-.76-.802-1.086-.423-.38-.835-.662-1.236-.843 1.66-.99 3.317-1.968 4.976-2.938h.033l.033.026c.022.01.044.02.066.028l.166.083.234.11c.2.112.39.224.567.334.245.15.468.297.668.445.51.424.923.883 1.236 1.376.38.604.568 1.25.568 1.934.003.776-.01 4.985-.03 12.63zM142.367 44.482c0 .56.123 1.088.368 1.587.2.405.478.78.834 1.123.4.4.8.7 1.2.902-1.657.9-3.314 1.812-4.97 2.732l-.035-.028-.033-.002-.066-.03-.167-.088-.235-.118c-.2-.116-.39-.233-.567-.348-.223-.153-.433-.315-.635-.485-.534-.418-.946-.875-1.235-1.373-.38-.61-.567-1.256-.567-1.94V26.43c0-.56-.122-1.096-.366-1.61-.2-.384-.478-.754-.835-1.108-.4-.373-.802-.656-1.202-.848 1.647-.944 3.294-1.878 4.94-2.802h.033l.1.06.134.058.2.09c.18.097.346.194.5.29.202.135.39.27.568.404.49.364.89.753 1.2 1.164.38.505.635 1.05.77 1.633 1.956-1.085 3.913-2.157 5.87-3.215 3 1.146 4.745 2.86 5.233 5.094.01 4.437.022 8.874.033 13.31-2.966 1.59-5.933 3.21-8.902 4.862-.356-.488-1.08-1.014-2.17-1.573v2.242zm0-18.577V38.86c.69-.18 1.368-.254 2.035-.218 1.045.056 2.057.385 3.035.986v-13.28c0-.777-.633-1.51-1.9-2.196-1.057.58-2.113 1.164-3.17 1.753zM174.86 40.542c0 .433.133.865.4 1.295.198.35.465.7.797 1.05.42.396.83.72 1.228.97-1.648.774-3.297 1.558-4.946 2.352-.82-.478-1.518-1.137-2.094-1.978-.42-.626-.776-1.333-1.063-2.123-2.06 1.01-4.122 2.04-6.185 3.08-2.995-1.246-4.727-2.968-5.193-5.21-.01 0-.022 0-.033-.002-.09-.368-.145-.787-.167-1.26l.034.004v-9.25c0-.955.62-1.923 1.864-2.893.976-.78 2.34-1.528 4.094-2.24 1.996-.828 3.98-1.465 5.952-1.91 1.95.835 3.367 1.902 4.252 3.183.708 1.026 1.062 2.144 1.062 3.35V40.54l-.003.002zm-6.012-12.346c0-.775-.642-1.534-1.928-2.267-2.13 1.053-3.193 2.32-3.193 3.78v9.71c0 .777.643 1.525 1.93 2.254 1.053-.522 2.106-1.04 3.16-1.553l.03-11.924zM179.838 21.696c0-.577-.122-1.125-.365-1.646-.2-.405-.475-.804-.83-1.195-.398-.414-.796-.738-1.194-.97 1.647-.775 3.294-1.54 4.94-2.293l.033.005.033.032c.022.01.044.023.067.036l.165.105.232.142c.2.12.387.255.563.407.22.158.43.333.63.525.53.493.938.997 1.226 1.51.373.67.56 1.347.56 2.032V42.65c0 1.532.784 2.795 2.35 3.8-1.63.733-3.265 1.476-4.9 2.228l-.033-.032-.033-.005c-2.298-1.74-3.447-3.67-3.447-5.818V21.696zM84.238 19.92c-1.397-1.302-3.104-2.292-5.12-2.955-2.016-.664-4.295-.856-6.835-.564-1.983.23-3.873.642-5.666 1.238-1.795.596-3.59 1.28-5.38 2.056-.526.23-1.084.46-1.67.69-.586.228-1.142.38-1.667.46-.926.137-1.745.04-2.454-.296-.155-.08-.293-.23-.416-.446-.124-.216-.24-.44-.347-.67-.107-.232-.202-.294-.277-.465-.078-.17-.148-.112-.208-.102l-.14.022c-.123.02-.207-.002-.253.214-.046.218-.07.31-.07.413 0 1.176.255 2.108.764 2.865.508.757 1.194 1.325 2.06 1.744.862.418 1.875.657 3.033.738 1.16.08 2.37.03 3.64-.142.99-.134 1.948-.33 2.876-.58.927-.25 1.856-.433 2.785-.547.308-.037.465.01.465.14-1.27 1.122-2.414 2.338-3.436 3.647-1.02 1.31-1.53 2.75-1.53 4.32 0 .783.192 1.47.578 2.06.387.59.812 1.16 1.276 1.715.465.555.89 1.12 1.276 1.7.386.58.58 1.248.58 2.006 0 .392-.03.723-.093.992-.06.27-.216.51-.463.725-.248.214-.62.392-1.114.533-.495.142-1.176.27-2.042.384-1.205.266-2.373.694-3.5 1.285-1.13.59-2.117 1.29-2.966 2.097-.85.806-1.528 1.694-2.038 2.66-.51.968-.764 1.975-.763 3.02 0 0 1.164-2.578 2.385-3.4 1.22-.824 2.694-1.36 4.425-1.6 1.978-.275 3.618-.24 4.917.09 1.3.332 2.6 1.035 3.9 2.11.186.11.333.114.443.297.108.185.317.117.627.082l.325-.038c1.115-1.017 2.447-2.412 3.998-3.36 1.55-.95 3.13-1.82 4.746-2.758 2.357-1.374 4.227-3.092 5.61-5.245 1.382-2.15 2.073-4.38 2.073-6.735 0-2.013-.372-3.917-1.118-5.728-.748-1.812-1.82-3.362-3.217-4.666zM76.32 41.253c0 .078-.443.526-.69.552l-.234.025c-1.334-.746-2.395-.395-3.184-.474-.79-.08-1.518-.254-2.183-.344-.668-.09-1-.204-1-.257 0-.235.108-.474.325-.67.216-.197.418-.422.604-.654.804-.827 1.562-1.713 2.275-2.644.713-.93 1.07-1.947 1.07-3.046 0-.836-.164-1.59-.49-2.26-.324-.67-.68-1.315-1.068-1.937-.388-.62-.784-1.242-1.11-1.87-.324-.628-.527-1.316-.527-2.075v-.98c0-.55.613-.988 1.017-1.22.402-.23.98-.388 1.693-.47.093-.01.32-.016.66-.015.342 0 .703.02 1.076.058.372.038.867.084 1.16.17.295.086.605.205.605.387v17.725zm5.436-5.598c-.063.87-.11 1.703-.342 2.522-.233.82-.532 1.414-.998 2.19-.466.777-1.052 1.942-1.858 2.023l-.233.022c-.186.02-.28.097-.7-.123-.417-.22-.42-.282-.42-.543V24.1c0-.105-.16-.147-.067-.17.094-.023.066-.027.128-.034.744-.077 1.358.195 1.95.804.588.608 1.066 1.308 1.485 2.092.42.784.532 1.545.764 2.242.233.698.182 1.114.182 1.218v2.745c.003.916.172 1.788.11 2.657z"/></svg>